<svg width="435" height="360" viewBox="0 0 435 360" fill="none" xmlns="http://www.w3.org/2000/svg">
<g clip-path="url(#clip0_3_75)">
<path d="M142.398 35.6201L147.556 43.6997L165.958 34.5567L175.418 31.6576C176.648 31.2809 177.757 30.5875 178.635 29.6467C179.513 28.7059 180.129 27.5507 180.422 26.2964C180.715 25.0421 180.674 23.7327 180.304 22.499C179.934 21.2654 179.247 20.1507 178.313 19.2664V19.2664C176.928 17.9559 175.089 17.236 173.184 17.2586C171.28 17.2811 169.458 18.0444 168.105 19.3873L160.165 27.2634L142.398 35.6201Z" fill="#A0616A"/>
<path d="M151.103 43.3234L144.226 32.5505L118.15 44.0485C116.277 44.8742 114.649 46.1708 113.424 47.8125C112.199 49.4543 111.417 51.3856 111.156 53.4191V53.4191C110.833 55.9264 111.316 58.4716 112.534 60.6856C113.752 62.8995 115.641 64.6672 117.929 65.7323L159.497 84.4673C162.366 85.8032 165.643 85.9616 168.627 84.9089C171.611 83.8562 174.066 81.6758 175.468 78.8333V78.8333C176.222 77.3045 176.646 75.6338 176.713 73.9299C176.78 72.2259 176.488 70.5269 175.857 68.9434C175.225 67.3599 174.268 65.9274 173.048 64.7392C171.827 63.5509 170.371 62.6335 168.774 62.0467L137.592 51.2283L151.103 43.3234Z" fill="#6C63FF"/>
<path d="M426.313 226.207C426.313 222.971 425.228 220.345 423.897 220.339H60.9742C59.637 220.345 58.5587 222.971 58.5527 226.207V359.415C58.5528 359.716 58.4412 360.005 58.2398 360.228C58.0384 360.45 57.7615 360.59 57.4632 360.619C56.4891 360.713 55.515 360.8 54.5409 360.881C54.5168 360.881 54.4927 360.887 54.4686 360.887C53.9385 360.935 53.4085 360.971 52.8784 361.013H52.8723C52.5997 360.508 52.3301 359.998 52.0638 359.484C51.9737 359.311 51.9267 359.119 51.9266 358.923V218.594C51.9266 217.701 51.9627 216.801 52.023 215.914C52.109 214.695 52.2598 213.482 52.4748 212.279C53.4928 206.671 55.7938 202.873 58.4081 202.861H426.457C426.839 202.864 427.216 202.944 427.565 203.096C428.079 203.324 428.544 203.65 428.933 204.056C429.461 204.607 429.913 205.226 430.276 205.898C431.565 208.174 432.487 211.567 432.812 215.515C432.812 215.551 432.818 215.588 432.818 215.624C432.902 216.602 432.945 217.598 432.939 218.594L433.023 231.532L433.077 239.248L433.24 263.457L433.3 272.054L433.565 360.319C433.565 360.639 433.438 360.946 433.212 361.173C432.986 361.399 432.68 361.527 432.36 361.527H427.517C427.198 361.527 426.891 361.399 426.665 361.173C426.439 360.946 426.313 360.639 426.313 360.319V226.207Z" fill="#E6E6E6"/>
<path d="M61.128 292.18L53.3195 290.775L55.0122 259.918L66.5373 261.993L61.128 292.18Z" fill="#A0616A"/>
<path d="M59.9405 300.394L35.9275 296.072L35.9821 295.768C36.4273 293.284 37.8388 291.078 39.9063 289.637C41.9738 288.196 44.5278 287.636 47.0066 288.082L47.0072 288.082L51.9909 285.536L59.5773 290.345L61.6734 290.722L59.9405 300.394Z" fill="#2F2E41"/>
<path d="M250.51 259.612H202.628C201.345 259.61 200.114 259.099 199.207 258.189C198.3 257.28 197.789 256.047 197.788 254.76V210.852C197.789 209.566 198.3 208.333 199.207 207.423C200.114 206.514 201.345 206.002 202.628 206.001H250.51C251.793 206.002 253.024 206.514 253.931 207.423C254.838 208.333 255.349 209.566 255.35 210.852V254.76C255.349 256.047 254.838 257.28 253.931 258.189C253.024 259.099 251.793 259.61 250.51 259.612V259.612Z" fill="#3F3D56"/>
<path d="M247.144 255.568H205.994C204.854 255.567 203.762 255.113 202.956 254.305C202.151 253.498 201.697 252.403 201.696 251.261V214.351C201.697 213.209 202.151 212.114 202.956 211.307C203.762 210.499 204.854 210.045 205.994 210.044H247.144C248.284 210.045 249.376 210.499 250.182 211.307C250.987 212.114 251.441 213.209 251.442 214.351V251.261C251.441 252.403 250.987 253.498 250.182 254.305C249.376 255.113 248.284 255.567 247.144 255.568Z" fill="white"/>
<path d="M243.039 220.79H210.099C209.814 220.79 209.541 220.676 209.339 220.475C209.138 220.273 209.024 219.999 209.024 219.713C209.024 219.428 209.138 219.154 209.339 218.952C209.541 218.75 209.814 218.636 210.099 218.636H243.039C243.324 218.636 243.597 218.75 243.799 218.952C244 219.154 244.114 219.428 244.114 219.713C244.114 219.999 244 220.273 243.799 220.475C243.597 220.676 243.324 220.79 243.039 220.79V220.79Z" fill="#6C63FF"/>
<path d="M243.039 225.045H210.099C209.814 225.045 209.54 224.931 209.339 224.729C209.138 224.527 209.024 224.253 209.024 223.968C209.024 223.682 209.138 223.408 209.339 223.207C209.54 223.005 209.814 222.891 210.099 222.891H243.039C243.324 222.891 243.597 223.005 243.799 223.207C244 223.408 244.114 223.682 244.114 223.968C244.114 224.253 244 224.527 243.799 224.729C243.597 224.931 243.324 225.045 243.039 225.045Z" fill="#6C63FF"/>
<path d="M224.378 229.299H210.099C209.814 229.299 209.54 229.186 209.339 228.984C209.138 228.782 209.024 228.508 209.024 228.223C209.024 227.937 209.138 227.663 209.339 227.461C209.54 227.259 209.814 227.146 210.099 227.146H224.378C224.663 227.146 224.936 227.259 225.137 227.461C225.339 227.663 225.452 227.937 225.452 228.223C225.452 228.508 225.339 228.782 225.137 228.984C224.936 229.186 224.663 229.299 224.378 229.299Z" fill="#6C63FF"/>
<path d="M243.039 238.21H210.099C209.814 238.21 209.541 238.097 209.339 237.895C209.138 237.693 209.024 237.419 209.024 237.133C209.024 236.848 209.138 236.574 209.339 236.372C209.541 236.17 209.814 236.057 210.099 236.057H243.039C243.324 236.057 243.597 236.17 243.799 236.372C244 236.574 244.114 236.848 244.114 237.133C244.114 237.419 244 237.693 243.799 237.895C243.597 238.097 243.324 238.21 243.039 238.21V238.21Z" fill="#E4E4E4"/>
<path d="M243.039 242.465H210.099C209.957 242.465 209.817 242.438 209.687 242.384C209.556 242.33 209.437 242.25 209.337 242.15C209.237 242.05 209.158 241.932 209.104 241.801C209.05 241.67 209.022 241.53 209.022 241.388C209.022 241.246 209.05 241.106 209.104 240.975C209.158 240.845 209.237 240.726 209.337 240.626C209.437 240.526 209.556 240.446 209.687 240.392C209.817 240.339 209.957 240.311 210.099 240.311H243.039C243.324 240.311 243.597 240.425 243.799 240.627C244 240.829 244.114 241.102 244.114 241.388C244.114 241.674 244 241.948 243.799 242.149C243.597 242.351 243.324 242.465 243.039 242.465V242.465Z" fill="#E4E4E4"/>
<path d="M224.378 246.719H210.099C209.814 246.719 209.54 246.606 209.339 246.404C209.138 246.202 209.024 245.928 209.024 245.642C209.024 245.357 209.138 245.083 209.339 244.881C209.54 244.679 209.814 244.566 210.099 244.566H224.378C224.663 244.566 224.936 244.679 225.137 244.881C225.339 245.083 225.452 245.357 225.452 245.642C225.452 245.928 225.339 246.202 225.137 246.404C224.936 246.606 224.663 246.719 224.378 246.719Z" fill="#E4E4E4"/>
<path d="M327.695 142.322H288.589C288.036 142.323 287.506 142.544 287.115 142.936C286.724 143.329 286.505 143.861 286.506 144.415V206.329H329.783V144.415C329.784 144.14 329.73 143.868 329.625 143.614C329.52 143.36 329.366 143.129 329.172 142.935C328.978 142.74 328.748 142.586 328.494 142.481C328.241 142.376 327.969 142.322 327.695 142.322V142.322ZM308.273 177.501C307.051 177.495 305.879 177.006 305.015 176.139C304.15 175.272 303.661 174.098 303.656 172.873V165.731C303.657 164.505 304.144 163.329 305.01 162.462C305.876 161.595 307.05 161.109 308.273 161.109C309.497 161.109 310.671 161.595 311.537 162.462C312.403 163.329 312.89 164.505 312.891 165.731V172.873C312.885 174.098 312.397 175.272 311.532 176.139C310.668 177.006 309.496 177.495 308.273 177.501Z" fill="#2F2E41"/>
<path d="M286.372 204.349V210.323C286.372 210.632 286.495 210.929 286.714 211.148C286.932 211.367 287.228 211.49 287.537 211.49H328.752C329.061 211.489 329.356 211.365 329.575 211.147C329.793 210.928 329.916 210.632 329.918 210.323V204.349H286.372Z" fill="#3F3D56"/>
<path d="M392.45 45.6978H225.289C223.853 45.7 222.476 46.2729 221.461 47.2907C220.445 48.3085 219.873 49.6883 219.871 51.1277V164.182C219.873 165.622 220.444 167.002 221.46 168.02C222.475 169.038 223.853 169.611 225.289 169.612H392.45C393.886 169.611 395.264 169.038 396.279 168.02C397.295 167.002 397.866 165.622 397.868 164.182V51.1277C397.865 49.6883 397.294 48.3085 396.278 47.2907C395.263 46.2729 393.886 45.7 392.45 45.6978V45.6978Z" fill="#3F3D56"/>
<path d="M391.055 49.6196H226.686C225.917 49.6213 225.18 49.9286 224.637 50.4742C224.093 51.0197 223.788 51.7589 223.788 52.5296V162.782C223.79 163.552 224.095 164.29 224.638 164.834C225.181 165.378 225.918 165.685 226.686 165.686H391.055C391.823 165.685 392.559 165.378 393.102 164.834C393.645 164.29 393.951 163.552 393.952 162.782V52.5296C393.952 51.7589 393.647 51.0197 393.104 50.4742C392.561 49.9286 391.824 49.6213 391.055 49.6196V49.6196Z" fill="white"/>
<path d="M359.038 213.569H261.248C260.98 213.569 260.716 213.509 260.474 213.394C260.232 213.278 260.019 213.11 259.851 212.902C259.682 212.694 259.562 212.45 259.499 212.19C259.436 211.929 259.432 211.657 259.487 211.395L261.005 204.172C261.091 203.768 261.313 203.405 261.633 203.145C261.953 202.885 262.353 202.742 262.765 202.74H357.521C357.934 202.742 358.333 202.885 358.653 203.145C358.973 203.405 359.195 203.768 359.281 204.172L360.799 211.395C360.854 211.657 360.85 211.929 360.787 212.19C360.724 212.45 360.604 212.694 360.435 212.902C360.267 213.11 360.054 213.278 359.812 213.394C359.57 213.509 359.306 213.569 359.038 213.569H359.038Z" fill="#2F2E41"/>
<path d="M266.177 204.041H263.753C263.591 204.041 263.459 204.173 263.459 204.336V205.557C263.459 205.72 263.591 205.852 263.753 205.852H266.177C266.339 205.852 266.471 205.72 266.471 205.557V204.336C266.471 204.173 266.339 204.041 266.177 204.041Z" fill="#3F3D56"/>
<path d="M272.201 204.041H269.777C269.615 204.041 269.483 204.173 269.483 204.336V205.557C269.483 205.72 269.615 205.852 269.777 205.852H272.201C272.363 205.852 272.495 205.72 272.495 205.557V204.336C272.495 204.173 272.363 204.041 272.201 204.041Z" fill="#3F3D56"/>
<path d="M278.224 204.041H275.801C275.638 204.041 275.507 204.173 275.507 204.336V205.557C275.507 205.72 275.638 205.852 275.801 205.852H278.224C278.387 205.852 278.519 205.72 278.519 205.557V204.336C278.519 204.173 278.387 204.041 278.224 204.041Z" fill="#3F3D56"/>
<path d="M284.248 204.041H281.824C281.662 204.041 281.53 204.173 281.53 204.336V205.557C281.53 205.72 281.662 205.852 281.824 205.852H284.248C284.411 205.852 284.542 205.72 284.542 205.557V204.336C284.542 204.173 284.411 204.041 284.248 204.041Z" fill="#3F3D56"/>
<path d="M290.272 204.041H287.848C287.686 204.041 287.554 204.173 287.554 204.336V205.557C287.554 205.72 287.686 205.852 287.848 205.852H290.272C290.434 205.852 290.566 205.72 290.566 205.557V204.336C290.566 204.173 290.434 204.041 290.272 204.041Z" fill="#3F3D56"/>
<path d="M296.296 204.041H293.872C293.709 204.041 293.578 204.173 293.578 204.336V205.557C293.578 205.72 293.709 205.852 293.872 205.852H296.296C296.458 205.852 296.59 205.72 296.59 205.557V204.336C296.59 204.173 296.458 204.041 296.296 204.041Z" fill="#3F3D56"/>
<path d="M302.319 204.041H299.896C299.733 204.041 299.602 204.173 299.602 204.336V205.557C299.602 205.72 299.733 205.852 299.896 205.852H302.319C302.482 205.852 302.613 205.72 302.613 205.557V204.336C302.613 204.173 302.482 204.041 302.319 204.041Z" fill="#3F3D56"/>
<path d="M308.343 204.041H305.919C305.757 204.041 305.625 204.173 305.625 204.336V205.557C305.625 205.72 305.757 205.852 305.919 205.852H308.343C308.505 205.852 308.637 205.72 308.637 205.557V204.336C308.637 204.173 308.505 204.041 308.343 204.041Z" fill="#3F3D56"/>
<path d="M314.367 204.041H311.943C311.781 204.041 311.649 204.173 311.649 204.336V205.557C311.649 205.72 311.781 205.852 311.943 205.852H314.367C314.529 205.852 314.661 205.72 314.661 205.557V204.336C314.661 204.173 314.529 204.041 314.367 204.041Z" fill="#3F3D56"/>
<path d="M320.39 204.041H317.967C317.804 204.041 317.673 204.173 317.673 204.336V205.557C317.673 205.72 317.804 205.852 317.967 205.852H320.39C320.553 205.852 320.685 205.72 320.685 205.557V204.336C320.685 204.173 320.553 204.041 320.39 204.041Z" fill="#3F3D56"/>
<path d="M326.414 204.041H323.99C323.828 204.041 323.696 204.173 323.696 204.336V205.557C323.696 205.72 323.828 205.852 323.99 205.852H326.414C326.577 205.852 326.708 205.72 326.708 205.557V204.336C326.708 204.173 326.577 204.041 326.414 204.041Z" fill="#3F3D56"/>
<path d="M332.438 204.041H330.014C329.852 204.041 329.72 204.173 329.72 204.336V205.557C329.72 205.72 329.852 205.852 330.014 205.852H332.438C332.6 205.852 332.732 205.72 332.732 205.557V204.336C332.732 204.173 332.6 204.041 332.438 204.041Z" fill="#3F3D56"/>
<path d="M338.462 204.041H336.038C335.875 204.041 335.744 204.173 335.744 204.336V205.557C335.744 205.72 335.875 205.852 336.038 205.852H338.462C338.624 205.852 338.756 205.72 338.756 205.557V204.336C338.756 204.173 338.624 204.041 338.462 204.041Z" fill="#3F3D56"/>
<path d="M344.485 204.041H342.062C341.899 204.041 341.768 204.173 341.768 204.336V205.557C341.768 205.72 341.899 205.852 342.062 205.852H344.485C344.648 205.852 344.779 205.72 344.779 205.557V204.336C344.779 204.173 344.648 204.041 344.485 204.041Z" fill="#3F3D56"/>
<path d="M350.509 204.041H348.085C347.923 204.041 347.791 204.173 347.791 204.336V205.557C347.791 205.72 347.923 205.852 348.085 205.852H350.509C350.671 205.852 350.803 205.72 350.803 205.557V204.336C350.803 204.173 350.671 204.041 350.509 204.041Z" fill="#3F3D56"/>
<path d="M356.533 204.041H354.109C353.947 204.041 353.815 204.173 353.815 204.336V205.557C353.815 205.72 353.947 205.852 354.109 205.852H356.533C356.695 205.852 356.827 205.72 356.827 205.557V204.336C356.827 204.173 356.695 204.041 356.533 204.041Z" fill="#3F3D56"/>
<path d="M266.106 207.06H263.682C263.52 207.06 263.388 207.192 263.388 207.354V208.576C263.388 208.739 263.52 208.871 263.682 208.871H266.106C266.268 208.871 266.4 208.739 266.4 208.576V207.354C266.4 207.192 266.268 207.06 266.106 207.06Z" fill="#3F3D56"/>
<path d="M272.13 207.06H269.706C269.543 207.06 269.412 207.192 269.412 207.354V208.576C269.412 208.739 269.543 208.871 269.706 208.871H272.13C272.292 208.871 272.424 208.739 272.424 208.576V207.354C272.424 207.192 272.292 207.06 272.13 207.06Z" fill="#3F3D56"/>
<path d="M278.153 207.06H275.73C275.567 207.06 275.436 207.192 275.436 207.354V208.576C275.436 208.739 275.567 208.871 275.73 208.871H278.153C278.316 208.871 278.447 208.739 278.447 208.576V207.354C278.447 207.192 278.316 207.06 278.153 207.06Z" fill="#3F3D56"/>
<path d="M284.177 207.06H281.753C281.591 207.06 281.459 207.192 281.459 207.354V208.576C281.459 208.739 281.591 208.871 281.753 208.871H284.177C284.339 208.871 284.471 208.739 284.471 208.576V207.354C284.471 207.192 284.339 207.06 284.177 207.06Z" fill="#3F3D56"/>
<path d="M290.201 207.06H287.777C287.615 207.06 287.483 207.192 287.483 207.354V208.576C287.483 208.739 287.615 208.871 287.777 208.871H290.201C290.363 208.871 290.495 208.739 290.495 208.576V207.354C290.495 207.192 290.363 207.06 290.201 207.06Z" fill="#3F3D56"/>
<path d="M296.224 207.06H293.801C293.638 207.06 293.507 207.192 293.507 207.354V208.576C293.507 208.739 293.638 208.871 293.801 208.871H296.224C296.387 208.871 296.519 208.739 296.519 208.576V207.354C296.519 207.192 296.387 207.06 296.224 207.06Z" fill="#3F3D56"/>
<path d="M302.248 207.06H299.824C299.662 207.06 299.53 207.192 299.53 207.354V208.576C299.53 208.739 299.662 208.871 299.824 208.871H302.248C302.411 208.871 302.542 208.739 302.542 208.576V207.354C302.542 207.192 302.411 207.06 302.248 207.06Z" fill="#3F3D56"/>
<path d="M308.272 207.06H305.848C305.686 207.06 305.554 207.192 305.554 207.354V208.576C305.554 208.739 305.686 208.871 305.848 208.871H308.272C308.434 208.871 308.566 208.739 308.566 208.576V207.354C308.566 207.192 308.434 207.06 308.272 207.06Z" fill="#3F3D56"/>
<path d="M314.296 207.06H311.872C311.709 207.06 311.578 207.192 311.578 207.354V208.576C311.578 208.739 311.709 208.871 311.872 208.871H314.296C314.458 208.871 314.59 208.739 314.59 208.576V207.354C314.59 207.192 314.458 207.06 314.296 207.06Z" fill="#3F3D56"/>
<path d="M320.319 207.06H317.896C317.733 207.06 317.602 207.192 317.602 207.354V208.576C317.602 208.739 317.733 208.871 317.896 208.871H320.319C320.482 208.871 320.613 208.739 320.613 208.576V207.354C320.613 207.192 320.482 207.06 320.319 207.06Z" fill="#3F3D56"/>
<path d="M326.343 207.06H323.919C323.757 207.06 323.625 207.192 323.625 207.354V208.576C323.625 208.739 323.757 208.871 323.919 208.871H326.343C326.505 208.871 326.637 208.739 326.637 208.576V207.354C326.637 207.192 326.505 207.06 326.343 207.06Z" fill="#3F3D56"/>
<path d="M332.367 207.06H329.943C329.781 207.06 329.649 207.192 329.649 207.354V208.576C329.649 208.739 329.781 208.871 329.943 208.871H332.367C332.529 208.871 332.661 208.739 332.661 208.576V207.354C332.661 207.192 332.529 207.06 332.367 207.06Z" fill="#3F3D56"/>
<path d="M338.39 207.06H335.967C335.804 207.06 335.673 207.192 335.673 207.354V208.576C335.673 208.739 335.804 208.871 335.967 208.871H338.39C338.553 208.871 338.685 208.739 338.685 208.576V207.354C338.685 207.192 338.553 207.06 338.39 207.06Z" fill="#3F3D56"/>
<path d="M344.414 207.06H341.99C341.828 207.06 341.696 207.192 341.696 207.354V208.576C341.696 208.739 341.828 208.871 341.99 208.871H344.414C344.577 208.871 344.708 208.739 344.708 208.576V207.354C344.708 207.192 344.577 207.06 344.414 207.06Z" fill="#3F3D56"/>
<path d="M350.438 207.06H348.014C347.852 207.06 347.72 207.192 347.72 207.354V208.576C347.72 208.739 347.852 208.871 348.014 208.871H350.438C350.6 208.871 350.732 208.739 350.732 208.576V207.354C350.732 207.192 350.6 207.06 350.438 207.06Z" fill="#3F3D56"/>
<path d="M356.462 207.06H354.038C353.875 207.06 353.744 207.192 353.744 207.354V208.576C353.744 208.739 353.875 208.871 354.038 208.871H356.462C356.624 208.871 356.756 208.739 356.756 208.576V207.354C356.756 207.192 356.624 207.06 356.462 207.06Z" fill="#3F3D56"/>
<path d="M316.103 210.682H292.596C292.434 210.682 292.302 210.814 292.302 210.977V212.198C292.302 212.361 292.434 212.493 292.596 212.493H316.103C316.265 212.493 316.397 212.361 316.397 212.198V210.977C316.397 210.814 316.265 210.682 316.103 210.682Z" fill="#3F3D56"/>
<path d="M379.735 351.361L375.09 343.881L374.163 348.155C374 348.904 373.837 349.665 373.687 350.419C372.368 349.29 370.964 348.246 369.591 347.244C365.374 344.177 361.16 341.106 356.947 338.031L358.266 345.698C359.079 350.419 359.929 355.237 361.941 359.554C362.163 360.043 362.404 360.526 362.664 360.997H382.265C382.422 360.559 382.531 360.106 382.59 359.644C382.595 359.614 382.597 359.584 382.596 359.554C382.903 356.625 381.289 353.867 379.735 351.361Z" fill="#F0F0F0"/>
<path d="M114.691 351.361L110.047 343.881L109.119 348.155C108.957 348.904 108.794 349.665 108.643 350.419C107.324 349.29 105.921 348.246 104.547 347.244C100.331 344.177 96.1161 341.106 91.9034 338.031L93.2226 345.698C94.0358 350.419 94.8852 355.237 96.8971 359.554C97.12 360.043 97.3609 360.526 97.62 360.997H117.221C117.379 360.559 117.488 360.106 117.546 359.644C117.551 359.614 117.553 359.584 117.552 359.554C117.86 356.625 116.245 353.867 114.691 351.361Z" fill="#F0F0F0"/>
<path d="M382.792 64.81H228.993C228.833 64.8064 228.681 64.7403 228.569 64.6257C228.457 64.5111 228.394 64.3572 228.394 64.197C228.394 64.0367 228.457 63.8828 228.569 63.7683C228.681 63.6537 228.833 63.5875 228.993 63.584H382.792C382.952 63.5875 383.104 63.6537 383.216 63.7683C383.328 63.8828 383.39 64.0367 383.39 64.197C383.39 64.3572 383.328 64.5111 383.216 64.6257C383.104 64.7403 382.952 64.8064 382.792 64.81V64.81Z" fill="#CACACA"/>
<path d="M239.462 60.4541C241.442 60.4541 243.046 58.8099 243.046 56.7816C243.046 54.7534 241.442 53.1091 239.462 53.1091C237.482 53.1091 235.878 54.7534 235.878 56.7816C235.878 58.8099 237.482 60.4541 239.462 60.4541Z" fill="#3F3D56"/>
<path d="M251.844 60.4541C253.824 60.4541 255.429 58.8099 255.429 56.7816C255.429 54.7534 253.824 53.1091 251.844 53.1091C249.865 53.1091 248.26 54.7534 248.26 56.7816C248.26 58.8099 249.865 60.4541 251.844 60.4541Z" fill="#3F3D56"/>
<path d="M264.227 60.4541C266.206 60.4541 267.811 58.8099 267.811 56.7816C267.811 54.7534 266.206 53.1091 264.227 53.1091C262.247 53.1091 260.642 54.7534 260.642 56.7816C260.642 58.8099 262.247 60.4541 264.227 60.4541Z" fill="#3F3D56"/>
<path d="M375.337 54.0195H366.541C366.367 54.023 366.201 54.0949 366.079 54.2197C365.957 54.3445 365.888 54.5123 365.888 54.687C365.888 54.8618 365.957 55.0296 366.079 55.1544C366.201 55.2792 366.367 55.351 366.541 55.3545H375.337C375.511 55.351 375.677 55.2792 375.799 55.1544C375.921 55.0296 375.99 54.8618 375.99 54.687C375.99 54.5123 375.921 54.3445 375.799 54.2197C375.677 54.0949 375.511 54.023 375.337 54.0195V54.0195Z" fill="#3F3D56"/>
<path d="M375.337 56.5249H366.541C366.367 56.5284 366.201 56.6002 366.079 56.725C365.957 56.8498 365.888 57.0176 365.888 57.1924C365.888 57.3672 365.957 57.535 366.079 57.6598C366.201 57.7846 366.367 57.8564 366.541 57.8599H375.337C375.511 57.8564 375.677 57.7846 375.799 57.6598C375.921 57.535 375.99 57.3672 375.99 57.1924C375.99 57.0176 375.921 56.8498 375.799 56.725C375.677 56.6002 375.511 56.5284 375.337 56.5249V56.5249Z" fill="#3F3D56"/>
<path d="M375.337 59.0273H366.541C366.367 59.0308 366.201 59.1027 366.079 59.2275C365.957 59.3523 365.888 59.5201 365.888 59.6948C365.888 59.8696 365.957 60.0374 366.079 60.1622C366.201 60.287 366.367 60.3588 366.541 60.3623H375.337C375.511 60.3588 375.677 60.287 375.799 60.1622C375.921 60.0374 375.99 59.8696 375.99 59.6948C375.99 59.5201 375.921 59.3523 375.799 59.2275C375.677 59.1027 375.511 59.0308 375.337 59.0273V59.0273Z" fill="#3F3D56"/>
<path d="M318.31 98.2068H299.092C297.649 98.2068 296.478 99.3796 296.478 100.826C296.478 102.273 297.649 103.446 299.092 103.446H318.31C319.754 103.446 320.924 102.273 320.924 100.826C320.924 99.3796 319.754 98.2068 318.31 98.2068Z" fill="#6C63FF"/>
<path d="M330.725 108.685H286.677C285.234 108.685 284.063 109.858 284.063 111.305C284.063 112.751 285.234 113.924 286.677 113.924H330.725C332.169 113.924 333.339 112.751 333.339 111.305C333.339 109.858 332.169 108.685 330.725 108.685Z" fill="#E6E6E6"/>
<path d="M330.725 119.163H286.677C285.234 119.163 284.063 120.336 284.063 121.783C284.063 123.23 285.234 124.402 286.677 124.402H330.725C332.169 124.402 333.339 123.23 333.339 121.783C333.339 120.336 332.169 119.163 330.725 119.163Z" fill="#E6E6E6"/>
<path d="M244.715 159.365C244.718 161.523 244.335 163.664 243.582 165.686H226.686C225.918 165.685 225.181 165.379 224.638 164.834C224.095 164.29 223.79 163.552 223.788 162.782V141.483C224.732 141.33 225.687 141.253 226.643 141.253C229.017 141.253 231.367 141.722 233.559 142.632C235.752 143.542 237.744 144.876 239.422 146.558C241.1 148.24 242.431 150.236 243.339 152.434C244.247 154.631 244.715 156.987 244.715 159.365Z" fill="#E6E6E6"/>
<path d="M211.377 176.205C211.124 183.54 195.559 203.33 187.373 206.168C185.981 206.651 185.168 206.916 185.168 206.916L182.319 206.053L147.815 195.591C141.773 199.153 123.75 200.964 108.962 201.869C97.1916 202.588 87.4633 202.733 87.4633 202.733C83.9908 229.201 77.1476 254.519 65.6032 278.235L51.7487 275.82L64.8373 187.483C65.1199 185.575 65.9556 183.793 67.2405 182.357C68.5254 180.921 70.2029 179.896 72.0645 179.408L166.217 154.724C166.217 154.724 171.41 153.782 182.361 159.077C200.39 167.795 211.558 170.868 211.377 176.205Z" fill="#2F2E41"/>
<path d="M179.001 342.887L171.966 346.561L154.478 321.11L164.862 315.687L179.001 342.887Z" fill="#A0616A"/>
<path d="M183.074 350.114L161.437 361.413L161.295 361.138C160.131 358.9 159.903 356.29 160.659 353.882C161.415 351.475 163.095 349.467 165.328 348.3L165.329 348.3L167.719 343.231L176.655 342.386L178.544 341.399L183.074 350.114Z" fill="#2F2E41"/>
<path d="M193.386 174.786C196.544 181.408 191.865 206.167 185.913 212.475L184.333 213.552L183.799 213.831C180.229 225.934 141.917 261.335 141.917 261.335C154.858 277.858 162.923 298.172 168.069 320.757L156.573 326.081L114.451 263.058C113.348 261.407 112.769 259.46 112.791 257.473C112.812 255.487 113.434 253.553 114.573 251.927L131.757 227.394L159.757 173.035C179.765 172.416 191.086 169.969 193.386 174.786Z" fill="#2F2E41"/>
<path d="M210.409 178.781C149.935 169.564 144.425 161.275 143.834 161.423L143.309 161.553L152.07 146.711L155.284 142.906L152.812 141.136L153.793 133.78C154.558 130.8 155.178 127.291 154.847 126.821C154.166 126.065 152.649 124.69 152.633 124.676L152.438 124.499L154.716 119.173L157.766 76.5902L165.63 60.8776L181.861 51.2336L196.167 51.4072L208.74 63.095C214.078 65.6685 218.419 69.9351 221.091 75.2333C223.763 80.5316 224.616 86.5653 223.518 92.399L217.132 126.207L214.783 143.632L218.616 147.474L216.231 149.865L214.813 158.005L216.265 167.224C217.401 175.601 212.352 176.101 211.979 176.205C211.957 176.212 210.86 179.089 210.814 179.089C210.698 179.089 210.688 178.824 210.409 178.781Z" fill="#6C63FF"/>
<path d="M207.234 212.394C207.925 211.718 208.459 210.898 208.799 209.993C209.14 209.087 209.278 208.118 209.204 207.153C209.13 206.189 208.846 205.252 208.372 204.409C207.898 203.566 207.245 202.838 206.46 202.275L213.094 179.716L201.431 183.286L196.92 204.161C196.064 205.546 195.745 207.197 196.023 208.802C196.301 210.407 197.157 211.854 198.429 212.869C199.7 213.884 201.298 214.396 202.921 214.308C204.544 214.221 206.079 213.539 207.234 212.394V212.394Z" fill="#A0616A"/>
<path d="M208.311 196.74L195.705 191.073L205.817 148.988L186.986 103.173C186.055 100.908 185.633 98.4662 185.75 96.0197C185.867 93.5733 186.52 91.1827 187.662 89.0176C188.805 86.8524 190.409 84.9659 192.36 83.492C194.312 82.018 196.563 80.9927 198.955 80.4889V80.4889C203.275 79.5838 207.778 80.4334 211.474 82.8514C215.17 85.2693 217.758 89.058 218.671 93.3863L230.123 148.003L208.311 196.74Z" fill="#6C63FF"/>
<path d="M158.537 35.9784L163.145 16.7718C163.303 16.1148 163.715 15.5476 164.29 15.1947C164.865 14.8418 165.557 14.7319 166.213 14.8892L170.389 15.8957C171.045 16.0544 171.611 16.4672 171.963 17.0436C172.315 17.62 172.424 18.3129 172.268 18.9702L167.66 38.1769C167.501 38.8338 167.089 39.401 166.514 39.7539C165.939 40.1068 165.248 40.2167 164.592 40.0594L160.416 39.0529C159.76 38.8942 159.194 38.4814 158.842 37.905C158.49 37.3286 158.38 36.6357 158.537 35.9784V35.9784Z" fill="#3F3D56"/>
<path d="M166.466 15.9865C166.113 15.9017 165.74 15.961 165.43 16.1512C165.121 16.3413 164.899 16.647 164.813 17.001L160.205 36.2077C160.121 36.5619 160.18 36.9352 160.37 37.2458C160.559 37.5564 160.864 37.7789 161.218 37.8645L165.394 38.871C165.748 38.9557 166.12 38.8965 166.43 38.7063C166.74 38.5161 166.962 38.2105 167.047 37.8565L171.655 18.6498C171.74 18.2956 171.681 17.9222 171.491 17.6116C171.301 17.301 170.996 17.0785 170.643 16.993L166.466 15.9865Z" fill="#6C63FF"/>
<path d="M185.79 48.0908C197.087 48.0908 206.246 38.9121 206.246 27.5897C206.246 16.2673 197.087 7.08862 185.79 7.08862C174.493 7.08862 165.335 16.2673 165.335 27.5897C165.335 38.9121 174.493 48.0908 185.79 48.0908Z" fill="#A0616A"/>
<path d="M195.225 41.2975L195.962 37.1451C196.415 34.3914 195.944 31.565 194.624 29.1077C193.304 26.6504 191.209 24.7009 188.666 23.5639L188.034 23.2576L188.555 22.9787C188.72 22.89 188.849 22.746 188.92 22.5717C188.991 22.3974 188.998 22.2038 188.941 22.0245C188.885 21.8452 188.767 21.6915 188.609 21.59C188.451 21.4886 188.262 21.4458 188.076 21.4691L187.485 21.5428C187.082 21.5922 186.673 21.5238 186.308 21.3458C185.943 21.1678 185.637 20.8877 185.427 20.5394C185.217 20.1911 185.113 19.7895 185.125 19.3828C185.138 18.9761 185.268 18.5818 185.499 18.2474C183.457 19.0954 181.278 19.5649 179.069 19.6332C175.871 19.609 173.093 18.0469 171.991 15.6532C171.723 15.0581 171.558 14.4215 171.503 13.7707C168.126 15.1046 166.304 19.1031 166.286 19.145L165.287 21.3783L165.714 18.9687C165.727 18.8953 167.035 11.5975 168.93 7.06985C170.968 2.20172 179.452 -0.364121 192.196 0.0418003C204.645 0.433867 207.406 14.6592 207.643 16.0356C211.18 19.446 209.895 25.903 208.807 29.4643C207.046 35.2319 203.57 40.9708 201.654 41.273C201.483 41.3053 201.306 41.286 201.145 41.2175C200.985 41.149 200.848 41.0345 200.752 40.8883C200.56 40.5827 200.306 40.3215 200.006 40.1218C199.706 39.9222 199.367 39.7886 199.012 39.7301C197.464 39.5096 195.867 40.7813 195.851 40.794L195.225 41.2975Z" fill="#2F2E41"/>
</g>
<defs>
<clipPath id="clip0_3_75">
<rect width="488" height="362" fill="white"/>
</clipPath>
</defs>
</svg>
